<?xml version="1.0" encoding="iso-8859-1"?>
<!-- Uploaded to: SVG Repo, www.svgrepo.com, Generator: SVG Repo Mixer Tools -->
<svg fill="#fff" height="20px" width="20px" version="1.1" id="Layer_1" xmlns="http://www.w3.org/2000/svg" xmlns:xlink="http://www.w3.org/1999/xlink"
	 viewBox="0 0 512 512" xml:space="preserve">
<g>
	<g>
		<path d="M386.832,179.745h-5.692c-5.185-21.868-17.148-41.14-33.541-55.467c-0.26-0.276-0.536-0.541-0.841-0.785
			c-0.151-0.121-0.309-0.227-0.467-0.336c-10.194-8.625-22.028-15.368-34.964-19.684c14.319-10.404,23.652-27.269,23.652-46.281
			C334.979,25.657,309.322,0,277.787,0c-31.536,0-57.191,25.657-57.191,57.192c0,19.013,9.334,35.877,23.651,46.281
			c-12.938,4.317-24.773,11.061-34.969,19.688c-0.155,0.107-0.312,0.211-0.461,0.331c-0.303,0.242-0.576,0.507-0.836,0.78
			c-16.396,14.328-28.36,33.602-33.547,55.472h-5.693c-22.526,0-40.851,18.325-40.851,40.851s18.326,40.851,40.851,40.851h5.692
			c11.095,46.788,53.221,81.702,103.353,81.702s92.258-34.914,103.353-81.702h5.692c22.526,0,40.851-18.325,40.851-40.851
			S409.357,179.745,386.832,179.745z M236.936,57.192c0-22.526,18.325-40.851,40.851-40.851s40.851,18.325,40.851,40.851
			s-18.325,40.851-40.851,40.851S236.936,79.717,236.936,57.192z M277.787,114.383c19.346,0,37.269,6.166,51.951,16.606
			c-13.737,13.766-32.256,21.521-51.951,21.521c-19.693,0-38.214-7.755-51.949-21.523
			C240.518,120.549,258.441,114.383,277.787,114.383z M386.832,245.106h-3.143c0.206-2.697,0.312-5.422,0.312-8.17
			c0-4.513-3.657-8.17-8.17-8.17s-8.17,3.657-8.17,8.17c0,49.555-40.317,89.872-89.872,89.872
			c-49.556,0-89.872-40.317-89.872-89.872c0-4.513-3.658-8.17-8.17-8.17s-8.17,3.657-8.17,8.17c0,2.748,0.105,5.473,0.312,8.17
			h-3.145c-13.516,0-24.511-10.996-24.511-24.511c0-13.515,10.996-24.511,24.511-24.511h3.143c-0.206,2.697-0.312,5.422-0.312,8.17
			c0,4.513,3.658,8.17,8.17,8.17s8.17-3.657,8.17-8.17c0-24.329,9.732-46.416,25.489-62.613
			c16.872,17.386,39.88,27.209,64.385,27.209c24.503,0,47.513-9.823,64.383-27.209c15.757,16.198,25.489,38.285,25.489,62.613
			c0,4.513,3.657,8.17,8.17,8.17c4.513,0,8.17-3.657,8.17-8.17c0-2.748-0.105-5.473-0.312-8.17h3.143
			c13.515,0,24.511,10.996,24.511,24.511C411.342,234.11,400.347,245.106,386.832,245.106z"/>
	</g>
</g>
<g>
	<g>
		<path d="M303.535,360.514c-2.597-1.44-5.773-1.356-8.291,0.217l-17.457,10.91L260.33,360.73c-2.519-1.573-5.693-1.657-8.29-0.217
			c-2.598,1.439-4.209,4.176-4.209,7.146v27.234c0,2.971,1.611,5.706,4.209,7.146c2.598,1.44,5.774,1.357,8.29-0.217l17.457-10.911
			l17.457,10.911c1.321,0.826,2.825,1.242,4.33,1.242c1.363,0,2.727-0.341,3.961-1.024c2.598-1.439,4.209-4.176,4.209-7.146v-27.234
			C307.745,364.69,306.134,361.955,303.535,360.514z"/>
	</g>
</g>
<g>
	<g>
		<path d="M248.919,196.085H230.4c-4.512,0-8.17,3.657-8.17,8.17c0,4.513,3.658,8.17,8.17,8.17h10.814
			c1.121,3.173,4.148,5.447,7.705,5.447c4.512,0,8.17-3.657,8.17-8.17v-5.447C257.089,199.742,253.431,196.085,248.919,196.085z"/>
	</g>
</g>
<g>
	<g>
		<path d="M325.174,196.085h-18.519c-4.513,0-8.17,3.657-8.17,8.17v5.447c0,4.513,3.657,8.17,8.17,8.17
			c3.558,0,6.584-2.274,7.705-5.447h10.814c4.513,0,8.17-3.657,8.17-8.17C333.345,199.742,329.688,196.085,325.174,196.085z"/>
	</g>
</g>
<g>
	<g>
		<path d="M298.497,245.579c-4.247-1.515-8.923,0.709-10.434,4.961c-1.543,4.338-5.672,7.252-10.277,7.252
			s-8.734-2.914-10.277-7.252c-1.511-4.252-6.183-6.475-10.435-4.961c-4.25,1.51-6.471,6.182-4.96,10.435
			c3.853,10.837,14.169,18.118,25.673,18.118s21.82-7.281,25.672-18.118C304.971,251.762,302.75,247.09,298.497,245.579z"/>
	</g>
</g>
<g>
	<g>
		<path d="M430.298,326.809h-66.147c-3.068,0-5.877,1.718-7.274,4.45l-79.09,154.629l-25.647-50.143h25.647
			c4.513,0,8.17-3.657,8.17-8.17s-3.657-8.17-8.17-8.17H38.128c-4.512,0-8.17,3.657-8.17,8.17s3.658,8.17,8.17,8.17h35.404v68.085
			c0,4.513,3.658,8.17,8.17,8.17h392.17c4.513,0,8.17-3.657,8.17-8.17V378.553C482.043,350.022,458.829,326.809,430.298,326.809z
			 M149.787,495.66H89.872v-59.915h16.992c3.506,22.001,20.923,39.419,42.923,42.923V495.66z M123.515,435.745H192.4
			c-3.699,15.594-17.733,27.234-34.442,27.234S127.215,451.339,123.515,435.745z M166.128,495.66v-16.992
			c22.001-3.506,39.417-20.923,42.923-42.923h24.736l30.645,59.915H166.128z M389.447,495.66h-98.304l78.006-152.511h20.298V495.66z
			 M465.702,495.66h-59.915V343.149h24.511c19.522,0,35.404,15.882,35.404,35.404V495.66z"/>
	</g>
</g>
<g>
	<g>
		<path d="M229.342,391.173l-30.645-59.915c-1.397-2.732-4.206-4.45-7.274-4.45h-66.147c-28.531,0-51.745,23.213-51.745,51.745
			v16.34c0,4.513,3.658,8.17,8.17,8.17s8.17-3.657,8.17-8.17v-16.34c0-19.522,15.883-35.404,35.404-35.404h24.511v51.745
			c0,4.513,3.658,8.17,8.17,8.17s8.17-3.657,8.17-8.17v-51.745h20.298l28.369,55.465c1.446,2.827,4.311,4.452,7.28,4.452
			c1.252,0,2.523-0.29,3.714-0.898C229.806,400.113,231.397,395.191,229.342,391.173z"/>
	</g>
</g>
</svg>
